<svg xmlns="http://www.w3.org/2000/svg" viewBox="0 11.25 228.14999389648438 42.400001525878906" data-asc="0.94" width="228.14999389648438" height="42.400001525878906"><defs/><g fill="#f1f2f3"><g transform="translate(0, 0)"><path d="M3.80 53.65Q3.25 53.65 2.50 53.60Q1.75 53.55 1.30 53.30Q1.10 53.15 0.55 52.83Q0 52.50 0 52.20Q0 51.85 0.28 51.88Q0.55 51.90 0.55 51.50Q0.55 51.10 0.40 50.70Q0.25 50.30 0.25 49.90Q0.25 49.45 0.50 48.67Q0.75 47.90 1.30 47.90Q1.45 47.90 1.45 48.05Q1.45 48.45 1.18 49Q0.90 49.55 0.90 49.90Q0.90 50.60 1.48 51.25Q2.05 51.90 2.88 52.33Q3.70 52.75 4.35 52.75Q4.60 52.75 4.90 52.75Q5.20 52.75 5.45 52.70Q7.70 52.40 9.70 50.67Q11.70 48.95 13.40 46.40Q15.10 43.85 16.50 40.98Q17.90 38.10 18.95 35.42Q20 32.75 20.65 30.85Q20.55 30.60 20.28 29.93Q20 29.25 20 29.05Q20 28.50 20.63 28.25Q21.25 28 21.65 27.95Q22.50 25.40 23.28 22.85Q24.05 20.30 24.90 17.80Q25.15 17 25.45 16.52Q25.75 16.05 26.40 15.55Q27.30 14.85 28.50 14.52Q29.70 14.20 30.80 14.20Q30.90 14.20 31.13 14.25Q31.35 14.30 31.35 14.45Q31.35 14.65 31 14.73Q30.65 14.80 30.55 14.80Q29.85 14.80 28.98 16.10Q28.10 17.40 27.23 19.38Q26.35 21.35 25.58 23.45Q24.80 25.55 24.25 27.20Q23.70 28.85 23.50 29.45Q23.75 30.20 24.08 30.95Q24.40 31.70 24.75 32.40Q24.85 32.30 25.03 32.15Q25.20 32 25.35 32Q27.25 32 29.38 31.55Q31.50 31.10 33.55 30.30Q35.60 29.50 37.15 28.50Q38.35 27.75 39.93 26.55Q41.50 25.35 42.65 23.88Q43.80 22.40 43.80 20.80Q43.80 19.15 42.58 17.97Q41.35 16.80 39.55 16Q37.75 15.20 35.93 14.73Q34.10 14.25 32.85 14.05Q31.15 13.80 29.48 13.67Q27.80 13.55 26.10 13.55Q24.05 13.55 21.50 13.82Q18.95 14.10 16.30 14.73Q13.65 15.35 11.30 16.45Q8.95 17.55 7.25 19.22Q5.55 20.90 4.95 23.25Q4.80 23.90 4.80 24.60Q4.80 25.85 5.30 26.92Q5.80 28 7.05 28.45L7.20 28.45Q7.60 28.45 7.98 28.38Q8.35 28.30 8.70 28.30Q8.75 28.30 8.90 28.32Q9.05 28.35 9.05 28.45Q9.05 28.80 8.50 28.97Q7.95 29.15 7.70 29.15Q6.85 29.15 6.25 28.75Q5.65 28.35 5.30 28.35Q5.25 28.35 5.20 28.38Q5.15 28.40 5.15 28.40Q5.05 28.50 5 28.65Q4.95 28.80 4.75 28.80Q4.45 28.80 4.20 28.27Q3.95 27.75 3.80 27.10Q3.65 26.45 3.65 26.20Q3.65 25.15 3.90 24Q4.55 21.15 6.38 19Q8.20 16.85 10.80 15.38Q13.40 13.90 16.35 13Q19.30 12.10 22.28 11.67Q25.25 11.25 27.80 11.25Q31.45 11.25 34.95 12Q36.45 12.30 38.30 12.95Q40.15 13.60 41.85 14.60Q43.55 15.60 44.68 17.02Q45.80 18.45 45.80 20.30Q45.80 22.35 44.28 24.27Q42.75 26.20 40.33 27.88Q37.90 29.55 35.13 30.88Q32.35 32.20 29.80 33.02Q27.25 33.85 25.55 34.05Q26.10 35.10 27.05 36.67Q28 38.25 29.23 39.98Q30.45 41.70 31.85 43.20Q33.25 44.70 34.70 45.65Q36.15 46.60 37.50 46.60Q38.70 46.60 39.45 45.90Q40.20 45.20 40.68 44.17Q41.15 43.15 41.40 42.20Q41.50 41.80 41.58 41.35Q41.65 40.90 41.75 40.55L41.85 40.55Q41.95 40.55 41.95 40.80Q42 41 42 41.30Q42 41.80 41.85 42.35Q41.70 43.10 41.65 43.85Q41.60 44.60 41.35 45.30Q40.80 46.85 39.68 47.77Q38.55 48.70 36.85 48.70Q34.85 48.70 33 47.65Q31.15 46.60 29.48 44.92Q27.80 43.25 26.38 41.23Q24.95 39.20 23.83 37.23Q22.70 35.25 21.95 33.70Q21.10 36.15 20.13 38.63Q19.15 41.10 17.85 43.40Q16.25 46.20 14.55 48.55Q12.85 50.90 10.50 52.27Q8.15 53.65 4.50 53.65L3.80 53.65ZM44.00 47.10Q43.20 47.10 42.98 46.48Q42.75 45.85 42.75 45.20Q42.75 42.85 43.65 40.15Q44.55 37.45 46.00 34.98Q47.45 32.50 49.15 30.90Q50.95 29.25 53.40 29.25Q54.40 29.25 55.38 29.47Q56.35 29.70 57.30 30.10Q58.15 29.50 59.15 29.05Q60.15 28.60 61.20 28.60Q61.45 28.60 61.60 28.90L61.60 29.05Q61.60 29.20 61.48 29.18Q61.35 29.15 61.25 29.15Q60.45 29.15 59.50 30.38Q58.55 31.60 57.60 33.50Q56.65 35.40 55.88 37.50Q55.10 39.60 54.63 41.35Q54.15 43.10 54.15 44Q54.15 44.35 54.28 44.80Q54.40 45.25 54.85 45.25Q55.10 45.25 55.28 45.15Q55.45 45.05 55.65 44.95Q56.75 44.30 57.83 43.17Q58.90 42.05 59.83 40.73Q60.75 39.40 61.35 38.30Q61.40 38.35 61.40 38.50Q61.40 38.80 61.05 39.38Q60.70 39.95 60.25 40.60Q59.80 41.25 59.43 41.75Q59.05 42.25 59.05 42.35Q59 42.70 58.90 42.92Q58.80 43.15 58.60 43.50Q57.95 44.15 56.95 45Q55.95 45.85 54.88 46.48Q53.80 47.10 52.80 47.10Q51.25 47.10 51.25 45.45Q51.25 44.45 51.68 43.13Q52.10 41.80 52.68 40.48Q53.25 39.15 53.70 38.25Q53.70 38.20 53.70 38.10Q53.70 38 53.65 38Q53.60 38 53.50 38.10Q52.90 38.90 51.75 40.40Q50.60 41.90 49.23 43.42Q47.85 44.95 46.45 46.02Q45.05 47.10 44.00 47.10M46.20 44.95Q46.75 44.95 47.58 44.23Q48.40 43.50 49.33 42.48Q50.25 41.45 50.98 40.50Q51.70 39.55 52.00 39.10Q52.60 38.20 53.38 36.85Q54.15 35.50 54.73 34.05Q55.30 32.60 55.30 31.60Q55.30 30.05 53.75 30.05Q52.85 30.05 51.85 30.85Q50.85 31.65 50.25 32.30Q49.60 33.10 48.78 34.60Q47.95 36.10 47.25 37.85Q46.55 39.60 46.08 41.20Q45.60 42.80 45.60 43.85Q45.60 44.15 45.70 44.55Q45.80 44.95 46.20 44.95ZM61.35 47.05Q60.55 47.05 60.23 46.55Q59.90 46.05 59.88 45.35Q59.85 44.65 59.85 44.05Q59.85 43.10 60.03 41.27Q60.20 39.45 60.55 37.42Q60.90 35.40 61.48 33.73Q62.05 32.05 62.85 31.45Q63.65 30.85 64.88 30.52Q66.10 30.20 67.05 30.20Q67.15 30.20 67.30 30.30Q67.45 30.40 67.50 30.50L67.50 30.65Q67.45 30.80 67.38 30.77Q67.30 30.75 67.20 30.75Q66.25 30.75 65.45 31.70Q64.65 32.65 64.05 34Q63.45 35.35 63.08 36.65Q62.70 37.95 62.55 38.65Q62.35 39.60 62.25 40.60Q62.15 41.60 62.15 42.60Q62.15 43.10 62.28 43.88Q62.40 44.65 63.10 44.65Q63.80 44.65 64.68 43.90Q65.55 43.15 66.05 42.65Q68.30 40.25 69.70 37.35Q71.10 34.45 72.10 31.40Q72.25 30.95 72.45 30.60Q72.65 30.25 73.10 30Q73.30 29.90 73.65 29.72Q74.00 29.55 74.20 29.55Q74.50 29.55 74.50 29.95Q74.50 30.50 74.03 31.50Q73.55 32.50 73.30 33Q72.75 34 71.80 35.73Q70.85 37.45 69.60 39.40Q68.35 41.35 66.95 43.08Q65.55 44.80 64.10 45.92Q62.65 47.05 61.35 47.05ZM82.05 25.50Q81.65 25.50 80.83 25.17Q80.00 24.85 80.00 24.35Q80.00 24.30 80.03 24.27Q80.05 24.25 80.05 24.20Q80.30 23.70 81.18 23.60Q82.05 23.50 82.50 23.30Q83.50 22.90 84.45 22.65Q85.40 22.40 86.25 21.75Q86.45 21.85 86.45 21.95Q86.45 22.15 86.03 22.50Q85.60 22.85 85.45 23.10Q85.25 23.40 84.58 23.97Q83.90 24.55 83.15 25.02Q82.40 25.50 82.05 25.50M73.60 47.15Q72.80 47.15 72.50 46.75Q72.20 46.35 72.20 45.60Q72.20 43.95 72.88 41.60Q73.55 39.25 74.40 36.83Q75.25 34.40 75.75 32.50Q75.95 31.80 76.73 31.52Q77.50 31.25 78.05 30.85Q78.85 30.30 79.75 29.93Q80.65 29.55 81.65 29.55Q81.90 29.55 81.98 29.65Q82.05 29.75 82.05 29.80Q82.05 30.10 81.70 30.10Q81.00 30.10 80.25 30.93Q79.50 31.75 78.75 33.05Q78.00 34.35 77.40 35.75Q76.80 37.15 76.35 38.33Q75.90 39.50 75.75 40.05Q75.50 40.85 75.25 41.92Q75.00 43 75.00 43.90Q75.00 44.25 75.10 44.73Q75.20 45.20 75.70 45.20Q76.05 45.20 76.45 44.95Q77.55 44.30 78.63 43.17Q79.70 42.05 80.63 40.73Q81.55 39.40 82.10 38.30Q82.20 38.35 82.20 38.50Q82.20 38.80 81.85 39.38Q81.50 39.95 81.05 40.60Q80.60 41.25 80.23 41.75Q79.85 42.25 79.85 42.35Q79.80 42.75 79.70 42.92Q79.60 43.10 79.40 43.50Q78.80 44.10 77.80 44.98Q76.80 45.85 75.70 46.50Q74.60 47.15 73.60 47.15ZM81.35 47.40Q80.40 47.40 79.25 47.05Q78.10 46.70 77.55 45.75L77.55 45.65Q77.55 45.40 78.18 44.88Q78.80 44.35 79.50 43.83Q80.20 43.30 80.40 43.05L80.75 42.95L80.85 43.15Q80.50 43.45 80.50 43.80Q80.50 44.55 81.08 45.05Q81.65 45.55 82.43 45.80Q83.20 46.05 83.80 46.05Q84.50 46.05 85.58 45.65Q86.65 45.25 87.50 44.55Q88.35 43.85 88.35 43Q88.35 41.70 87.55 40.75Q86.75 39.80 85.70 38.95Q84.65 38.10 83.85 37.15Q83.05 36.20 83.05 34.95Q83.05 33.50 83.93 32.33Q84.80 31.15 86.18 30.32Q87.55 29.50 89.05 29.07Q90.55 28.65 91.80 28.65Q92.00 28.65 92.70 28.72Q93.40 28.80 94.03 28.97Q94.65 29.15 94.65 29.45Q94.65 29.55 94.60 29.55L94.50 29.55L94.10 29.45Q94.25 29.80 94.25 30.30Q94.25 30.75 94.05 31.45Q93.85 32.15 93.60 32.55Q93.55 32.65 93.10 33.20Q92.65 33.75 92.20 34.25Q91.75 34.75 91.65 34.75L91.60 34.65Q91.70 34.40 92.25 33.77Q92.80 33.15 92.80 32.15Q92.80 31.10 91.85 30.43Q90.90 29.75 89.90 29.75Q88.95 29.75 87.93 30.35Q86.90 30.95 86.23 31.90Q85.55 32.85 85.55 33.85Q85.55 34.75 86.43 35.73Q87.30 36.70 88.43 37.67Q89.55 38.65 90.43 39.60Q91.30 40.55 91.30 41.40L91.30 41.55Q91.30 42.80 90.20 43.88Q89.10 44.95 87.45 45.75Q85.80 46.55 84.13 46.98Q82.45 47.40 81.35 47.40ZM91.35 47.65Q91.25 47.65 91.25 47.60Q91.25 47.40 91.43 47.23Q91.60 47.05 91.70 46.90Q92.10 46.25 92.50 45.17Q92.90 44.10 93.28 42.98Q93.65 41.85 93.90 41.10Q94.90 38.15 95.85 35.15Q96.80 32.15 97.90 29.20Q98.55 27.45 99.45 25.22Q100.35 23 101.55 20.75Q102.75 18.50 104.28 16.63Q105.80 14.75 107.70 13.60Q109.60 12.45 111.90 12.45Q114.40 12.45 115.23 13.35Q116.05 14.25 116.05 15.20Q116.05 15.60 115.78 15.70Q115.50 15.80 115.50 15.45Q115.50 14.40 114.65 13.73Q113.80 13.05 112.65 13.05Q111.60 13.05 110.43 13.82Q109.25 14.60 108.20 15.65Q107.15 16.70 106.55 17.50Q104.55 20.20 103.30 22.50Q102.05 24.80 101.18 27Q100.30 29.20 99.53 31.65Q98.75 34.10 97.70 37.10L97.70 37.30Q97.70 37.45 97.75 37.45Q97.90 37.30 97.90 37.30Q99.45 35.25 101.08 33.27Q102.70 31.30 105.00 30.05Q105.35 29.85 105.80 29.63Q106.25 29.40 106.65 29.40Q107.30 29.40 107.43 29.97Q107.55 30.55 107.55 31.05Q107.55 32.10 106.88 33.77Q106.20 35.45 105.28 37.40Q104.35 39.35 103.68 41.23Q103.00 43.10 103.00 44.60Q103.00 44.80 103.08 45.08Q103.15 45.35 103.45 45.35Q103.95 45.35 104.80 44.52Q105.65 43.70 106.40 42.73Q107.15 41.75 107.35 41.30Q107.55 41.50 107.55 41.60Q107.55 42.05 106.68 43.02Q105.80 44 104.60 45.05Q103.40 46.10 102.30 46.85Q101.20 47.60 100.75 47.60Q100.25 47.60 100.08 46.85Q99.90 46.10 99.90 45.75Q99.90 44.80 100.33 43.35Q100.75 41.90 101.38 40.30Q102.00 38.70 102.63 37.25Q103.25 35.80 103.65 34.85Q103.80 34.55 104.10 33.77Q104.40 33 104.40 32.65Q104.40 32.40 104.33 32.10Q104.25 31.80 103.90 31.80Q103.35 31.80 102.58 32.45Q101.80 33.10 101.40 33.50Q99.25 35.85 97.68 38.83Q96.10 41.80 95.10 44.85Q95.00 45.25 94.95 45.40Q94.90 45.55 94.50 45.85Q94.35 45.90 93.58 46.35Q92.80 46.80 92.10 47.23Q91.40 47.65 91.35 47.65ZM109.70 47.10Q108.90 47.10 108.68 46.48Q108.45 45.85 108.45 45.20Q108.45 42.85 109.35 40.15Q110.25 37.45 111.70 34.98Q113.15 32.50 114.85 30.90Q116.65 29.25 119.10 29.25Q120.10 29.25 121.08 29.47Q122.05 29.70 123.00 30.10Q123.85 29.50 124.85 29.05Q125.85 28.60 126.90 28.60Q127.15 28.60 127.30 28.90L127.30 29.05Q127.30 29.20 127.18 29.18Q127.05 29.15 126.95 29.15Q126.15 29.15 125.20 30.38Q124.25 31.60 123.30 33.50Q122.35 35.40 121.58 37.50Q120.80 39.60 120.33 41.35Q119.85 43.10 119.85 44Q119.85 44.35 119.98 44.80Q120.10 45.25 120.55 45.25Q120.80 45.25 120.98 45.15Q121.15 45.05 121.35 44.95Q122.45 44.30 123.53 43.17Q124.60 42.05 125.53 40.73Q126.45 39.40 127.05 38.30Q127.10 38.35 127.10 38.50Q127.10 38.80 126.75 39.38Q126.40 39.95 125.95 40.60Q125.50 41.25 125.13 41.75Q124.75 42.25 124.75 42.35Q124.70 42.70 124.60 42.92Q124.50 43.15 124.30 43.50Q123.65 44.15 122.65 45Q121.65 45.85 120.58 46.48Q119.50 47.10 118.50 47.10Q116.95 47.10 116.95 45.45Q116.95 44.45 117.38 43.13Q117.80 41.80 118.38 40.48Q118.95 39.15 119.40 38.25Q119.40 38.20 119.40 38.10Q119.40 38 119.35 38Q119.30 38 119.20 38.10Q118.60 38.90 117.45 40.40Q116.30 41.90 114.93 43.42Q113.55 44.95 112.15 46.02Q110.75 47.10 109.70 47.10M111.90 44.95Q112.45 44.95 113.28 44.23Q114.10 43.50 115.03 42.48Q115.95 41.45 116.68 40.50Q117.40 39.55 117.70 39.10Q118.30 38.20 119.08 36.85Q119.85 35.50 120.43 34.05Q121.00 32.60 121.00 31.60Q121.00 30.05 119.45 30.05Q118.55 30.05 117.55 30.85Q116.55 31.65 115.95 32.30Q115.30 33.10 114.48 34.60Q113.65 36.10 112.95 37.85Q112.25 39.60 111.78 41.20Q111.30 42.80 111.30 43.85Q111.30 44.15 111.40 44.55Q111.50 44.95 111.90 44.95ZM123.50 47.65Q123.45 47.65 123.45 47.60Q123.45 47.40 123.63 47.20Q123.80 47 123.85 46.90Q124.20 46.35 124.68 45.02Q125.15 43.70 125.63 42.02Q126.10 40.35 126.53 38.63Q126.95 36.90 127.30 35.45Q127.65 34 127.80 33.25Q127.90 32.85 128 32.20Q128.10 31.55 128.30 30.90Q128.50 30.25 128.75 30.05Q129.25 29.65 130.13 29.35Q131 29.05 131.95 28.88Q132.90 28.70 133.50 28.70Q133.60 28.70 133.75 28.80Q133.90 28.90 133.95 29L133.95 29.15Q133.95 29.30 133.85 29.27Q133.75 29.25 133.65 29.25Q132.55 29.25 131.70 30.47Q130.85 31.70 130.25 33.48Q129.65 35.25 129.25 36.90Q128.85 38.55 128.65 39.40Q130.25 36.65 132.33 34.13Q134.40 31.60 137.20 30.05Q137.55 29.85 138 29.63Q138.45 29.40 138.80 29.40Q139.45 29.40 139.60 29.97Q139.75 30.55 139.75 31.05Q139.75 31.70 139.30 32.95Q138.85 34.20 138.28 35.42Q137.70 36.65 137.40 37.35Q137.10 38.15 136.70 39.40Q136.30 40.65 136 41.90Q135.70 43.15 135.70 44Q135.70 44.35 135.80 44.80Q135.90 45.25 136.35 45.25Q136.60 45.25 136.78 45.15Q136.95 45.05 137.15 44.95Q138.30 44.30 139.38 43.17Q140.45 42.05 141.35 40.73Q142.25 39.40 142.85 38.30Q142.90 38.35 142.90 38.50Q142.90 38.80 142.55 39.38Q142.20 39.95 141.75 40.60Q141.30 41.25 140.93 41.75Q140.55 42.25 140.55 42.35Q140.50 42.70 140.40 42.92Q140.30 43.15 140.15 43.50Q139.55 44.10 138.43 44.98Q137.30 45.85 136.13 46.52Q134.95 47.20 134.05 47.20Q133.25 47.20 132.98 46.58Q132.70 45.95 132.70 45.25Q132.70 43.90 133.25 42.02Q133.80 40.15 134.55 38.27Q135.30 36.40 135.80 35.10Q135.95 34.70 136.28 33.85Q136.60 33 136.60 32.65Q136.60 32.40 136.53 32.10Q136.45 31.80 136.05 31.80Q135.55 31.80 134.78 32.45Q134 33.10 133.60 33.50Q131.45 35.90 129.90 38.83Q128.35 41.75 127.30 44.85Q127.15 45.25 127.13 45.42Q127.10 45.60 126.70 45.85Q126.55 45.95 125.78 46.40Q125.00 46.85 124.28 47.25Q123.55 47.65 123.50 47.65ZM138.95 47.65Q138.90 47.65 138.90 47.60Q138.90 47.40 139.08 47.23Q139.25 47.05 139.30 46.90Q139.70 46.25 140.15 45.17Q140.60 44.10 141.00 42.95Q141.40 41.80 141.65 41.10Q142.70 38.15 143.70 35.13Q144.70 32.10 145.80 29.15Q146.45 27.40 147.33 25.20Q148.20 23 149.38 20.75Q150.55 18.50 152.05 16.63Q153.55 14.75 155.40 13.60Q157.25 12.45 159.55 12.45Q160.10 12.45 160.78 12.65Q161.45 12.85 161.75 13.35Q161.95 13.55 161.95 13.80Q161.95 14 161.80 14Q161.45 13.85 161.15 13.45Q160.85 13.05 160.25 13.05Q159.25 13.05 158.05 13.82Q156.85 14.60 155.83 15.65Q154.80 16.70 154.20 17.50Q152.50 19.80 150.98 22.85Q149.45 25.90 148.18 29.10Q146.90 32.30 145.90 35.05Q146.40 34.35 147.28 33.42Q148.15 32.50 149.20 31.60Q150.25 30.70 151.33 30.10Q152.40 29.50 153.25 29.50Q154.20 29.50 154.80 30.10Q155.40 30.70 155.40 31.65Q155.40 33.20 154.45 34.27Q153.50 35.35 152.03 36Q150.55 36.65 148.98 36.95Q147.40 37.25 146.20 37.30Q146.55 38.40 147.25 39.92Q147.95 41.45 148.98 42.92Q150.00 44.40 151.20 45.38Q152.40 46.35 153.70 46.35Q155.25 46.35 156.08 45.40Q156.90 44.45 157.70 43.35Q157.75 43.35 157.75 43.50Q157.75 43.70 157.65 43.90Q157.55 44.10 157.45 44.25Q157.25 44.60 157.08 44.98Q156.90 45.35 156.65 45.70Q156.00 46.55 155.03 46.95Q154.05 47.35 153.00 47.35Q150.75 47.35 149.08 46.13Q147.40 44.90 146.28 43Q145.15 41.10 144.45 39.20Q144.10 40.30 143.75 41.42Q143.40 42.55 143.05 43.70Q143.00 43.90 142.93 44.15Q142.85 44.40 142.80 44.65Q142.75 44.75 142.75 44.85Q142.70 45.25 142.63 45.42Q142.55 45.60 142.15 45.85Q142.05 45.90 141.25 46.35Q140.45 46.80 139.73 47.23Q139.00 47.65 138.95 47.65M147.10 36.40Q148.45 36.40 149.70 35.88Q150.95 35.35 151.75 34.33Q152.55 33.30 152.55 31.85Q152.55 31.60 152.48 31.27Q152.40 30.95 152.00 30.95Q150.80 30.95 149.63 31.95Q148.45 32.95 147.40 34.20Q146.35 35.45 145.60 36.25Q146.30 36.40 147.10 36.40ZM157.40 47.10Q156.60 47.10 156.38 46.48Q156.15 45.85 156.15 45.20Q156.15 42.85 157.05 40.15Q157.95 37.45 159.40 34.98Q160.85 32.50 162.55 30.90Q164.35 29.25 166.80 29.25Q167.80 29.25 168.78 29.47Q169.75 29.70 170.70 30.10Q171.55 29.50 172.55 29.05Q173.55 28.60 174.60 28.60Q174.85 28.60 175.00 28.90L175.00 29.05Q175.00 29.20 174.88 29.18Q174.75 29.15 174.65 29.15Q173.85 29.15 172.90 30.38Q171.95 31.60 171.00 33.50Q170.05 35.40 169.28 37.50Q168.50 39.60 168.03 41.35Q167.55 43.10 167.55 44Q167.55 44.35 167.68 44.80Q167.80 45.25 168.25 45.25Q168.50 45.25 168.68 45.15Q168.85 45.05 169.05 44.95Q170.15 44.30 171.23 43.17Q172.30 42.05 173.23 40.73Q174.15 39.40 174.75 38.30Q174.80 38.35 174.80 38.50Q174.80 38.80 174.45 39.38Q174.10 39.95 173.65 40.60Q173.20 41.25 172.83 41.75Q172.45 42.25 172.45 42.35Q172.40 42.70 172.30 42.92Q172.20 43.15 172.00 43.50Q171.35 44.15 170.35 45Q169.35 45.85 168.28 46.48Q167.20 47.10 166.20 47.10Q164.65 47.10 164.65 45.45Q164.65 44.45 165.08 43.13Q165.50 41.80 166.08 40.48Q166.65 39.15 167.10 38.25Q167.10 38.20 167.10 38.10Q167.10 38 167.05 38Q167.00 38 166.90 38.10Q166.30 38.90 165.15 40.40Q164.00 41.90 162.63 43.42Q161.25 44.95 159.85 46.02Q158.45 47.10 157.40 47.10M159.60 44.95Q160.15 44.95 160.98 44.23Q161.80 43.50 162.73 42.48Q163.65 41.45 164.38 40.50Q165.10 39.55 165.40 39.10Q166.00 38.20 166.78 36.85Q167.55 35.50 168.13 34.05Q168.70 32.60 168.70 31.60Q168.70 30.05 167.15 30.05Q166.25 30.05 165.25 30.85Q164.25 31.65 163.65 32.30Q163.00 33.10 162.18 34.60Q161.35 36.10 160.65 37.85Q159.95 39.60 159.48 41.20Q159.00 42.80 159.00 43.85Q159.00 44.15 159.10 44.55Q159.20 44.95 159.60 44.95ZM171.25 47.65Q171.15 47.65 171.15 47.60Q171.15 47.40 171.33 47.23Q171.50 47.05 171.60 46.90Q172.05 46.15 172.63 44.33Q173.20 42.50 173.78 40.30Q174.35 38.10 174.83 36.17Q175.30 34.25 175.50 33.25Q175.60 32.85 175.73 32.20Q175.85 31.55 176.05 30.90Q176.25 30.25 176.50 30.05Q176.95 29.65 177.85 29.35Q178.75 29.05 179.68 28.88Q180.60 28.70 181.20 28.70Q181.30 28.70 181.45 28.80Q181.60 28.90 181.65 29L181.70 29.15Q181.65 29.30 181.55 29.27Q181.45 29.25 181.35 29.25Q180.40 29.25 179.60 30.32Q178.80 31.40 178.20 32.95Q177.60 34.50 177.18 35.92Q176.75 37.35 176.60 38.05Q177.10 36.90 177.93 35.42Q178.75 33.95 179.85 32.58Q180.95 31.20 182.25 30.27Q183.55 29.35 185.00 29.35Q185.20 29.35 185.68 29.43Q186.15 29.50 186.58 29.68Q187.00 29.85 187.00 30.10L186.95 30.15L186.90 30.15L186.60 30.05Q186.75 30.40 186.80 30.75Q186.85 31.10 186.85 31.45Q186.85 31.75 186.68 32.75Q186.50 33.75 186.23 34.63Q185.95 35.50 185.65 35.50Q185.45 35.50 185.45 35.35Q185.45 35.10 185.63 34.52Q185.80 33.95 185.80 33.45Q185.80 32.55 185.35 32Q184.90 31.45 184.00 31.45Q182.50 31.45 181.10 32.73Q179.70 34 178.55 35.88Q177.40 37.75 176.60 39.65Q175.80 41.55 175.50 42.75Q175.30 43.40 175.15 44.42Q175.00 45.45 174.40 45.85Q174.25 45.90 173.48 46.35Q172.70 46.80 171.98 47.23Q171.25 47.65 171.25 47.65ZM202.75 51.40Q200.65 51.40 198.53 50.83Q196.40 50.25 194.98 48.83Q193.55 47.40 193.55 44.85Q193.55 43.25 194.10 41.65Q194.65 40.05 195.45 38.65Q196.10 37.45 197.33 36.05Q198.55 34.65 200.05 33.40Q201.55 32.15 203.15 31.32Q204.75 30.50 206.15 30.50Q206.45 30.50 206.58 30.85Q206.70 31.20 207.05 31.45Q207.20 31.50 207.33 31.52Q207.45 31.55 207.60 31.65Q207.85 31.75 207.85 31.95Q207.85 32.20 207.55 32.20Q207.20 32.20 206.93 32.08Q206.65 31.95 206.30 31.95Q205.35 31.95 204.13 32.38Q202.90 32.80 202.00 33.25Q200.15 34.15 198.68 35.75Q197.20 37.35 196.33 39.35Q195.45 41.35 195.45 43.45Q195.45 45.85 196.78 47.23Q198.10 48.60 200.13 49.15Q202.15 49.70 204.15 49.70Q206.30 49.70 208.83 49.15Q211.35 48.60 213.83 47.50Q216.30 46.40 218.30 44.80Q220.30 43.20 221.53 41.10Q222.75 39 222.75 36.45Q222.75 35 221.90 33.90Q221.05 32.80 219.68 31.90Q218.30 31 216.80 30.10Q215.30 29.20 213.93 28.20Q212.55 27.20 211.70 25.95Q210.85 24.70 210.85 23Q210.85 21.05 212.00 19.22Q213.15 17.40 214.98 15.95Q216.80 14.50 218.88 13.65Q220.95 12.80 222.80 12.80Q224.10 12.80 225.10 13.38Q226.10 13.95 226.10 15.45Q226.10 16.05 225.95 16.75L226.05 16.85Q226.20 16.70 226.63 16.13Q227.05 15.55 227.48 15.05Q227.90 14.55 228.00 14.55Q228.15 14.55 228.15 14.70Q228.15 14.75 228.10 14.75Q227.20 16 226.75 17.17Q226.30 18.35 225.90 19.85Q225.90 19.95 225.75 19.95Q225.55 19.95 225.23 19.75Q224.90 19.55 224.90 19.35Q224.90 18.65 225.13 18Q225.35 17.35 225.35 16.70Q225.35 15.90 224.83 15.50Q224.30 15.10 223.58 14.98Q222.85 14.85 222.20 14.85Q220.90 14.85 219.33 15.30Q217.75 15.75 216.30 16.60Q214.85 17.45 213.90 18.67Q212.95 19.90 212.95 21.40Q212.95 22.65 213.75 23.60Q214.55 24.55 215.65 25.22Q216.75 25.90 217.70 26.45Q219.20 27.25 220.88 28.40Q222.55 29.55 223.73 31.05Q224.90 32.55 224.90 34.50Q224.90 37.65 223.50 40.27Q222.10 42.90 219.75 44.98Q217.40 47.05 214.50 48.48Q211.60 49.90 208.55 50.65Q205.50 51.40 202.75 51.40Z"/></g></g></svg>